<svg width="381" height="472" viewBox="0 0 381 472" fill="none" xmlns="http://www.w3.org/2000/svg">
<path d="M262.847 81.6758L230.386 114.088L148.293 91.7294C147.199 91.4323 146.047 91.429 144.951 91.7199C143.856 92.0107 142.857 92.5853 142.056 93.3856L123.452 111.961C120.433 114.976 121.143 120.035 124.875 122.105L187.542 156.869L158.327 186.039L129.698 181.956C127.696 181.669 125.674 182.344 124.245 183.771L112.887 195.112C109.93 198.064 110.538 203.004 114.125 205.151L153.783 226.877L175.542 266.476C177.692 270.058 182.64 270.665 185.596 267.712L196.954 256.371C198.386 254.942 199.059 252.926 198.772 250.926L194.682 222.34L223.897 193.169L258.709 255.739C260.782 259.465 265.852 260.177 268.871 257.163L287.475 238.587C289.105 236.959 289.735 234.583 289.131 232.362L266.741 150.389L299.202 117.976C309.242 107.951 318.331 82.6259 308.291 72.6007C298.25 62.5756 272.887 71.6507 262.847 81.6758Z" fill="#839900" fill-opacity="0.2"/>
<path d="M136.773 265.949C84.9431 373.287 115.177 446.443 136.773 469.604H239.952C163.168 448.52 139.172 325.049 136.773 265.949Z" fill="#00346E" fill-opacity="0.2"/>
<path d="M0 472C3.83924 391.497 79.9842 299.492 117.577 263.553C46.5508 399.643 68.7864 459.222 88.7824 472H0Z" fill="#839900" fill-opacity="0.2"/>
</svg>
