<svg width="87" height="108" viewBox="0 0 87 108" fill="none" xmlns="http://www.w3.org/2000/svg">
<path d="M60.0202 18.6886L52.6079 26.1049L33.8622 20.9889C33.6124 20.921 33.3492 20.9202 33.0991 20.9868C32.849 21.0533 32.6209 21.1848 32.4379 21.3679L28.1899 25.6182C27.5005 26.308 27.6627 27.4657 28.5148 27.9394L42.8245 35.8937L36.1535 42.5684L29.6161 41.6339C29.1589 41.5684 28.6971 41.7228 28.3709 42.0492L25.7773 44.6442C25.1022 45.3197 25.241 46.4501 26.0601 46.9413L35.1158 51.9126L40.0844 60.9733C40.5753 61.7929 41.7051 61.9318 42.3802 61.2563L44.9738 58.6613C45.3007 58.3342 45.4544 57.8728 45.3889 57.4154L44.455 50.8744L51.126 44.1997L59.0753 58.5166C59.5487 59.3692 60.7064 59.5321 61.3958 58.8423L65.6438 54.592C66.0161 54.2195 66.1601 53.6757 66.0219 53.1676L60.9094 34.4109L68.3217 26.9946C70.6143 24.7007 72.6897 18.9059 70.3971 16.612C68.1044 14.3182 62.3129 16.3947 60.0202 18.6886Z" fill="#839900"/>
<path d="M31.2316 60.8528C19.3964 85.4132 26.3003 102.152 31.2316 107.452H54.7923C37.2587 102.627 31.7795 74.3756 31.2316 60.8528Z" fill="#00346E"/>
<path d="M0 108C0.876677 89.5797 18.2641 68.5279 26.8482 60.3046C10.6297 91.4437 15.7071 105.076 20.2731 108H0Z" fill="#839900"/>
</svg>
